<svg xmlns="http://www.w3.org/2000/svg" height="800" width="600" version="1.1" xmlns:xlink="http://www.w3.org/1999/xlink">

<!-- Kindle Weather Project, adopted from https://github.com/mpetroff/kindle-weather-display -->

<defs>
<path id="bkn" d="M33.469,15v11.938h3.125v-11.938h-3.125zm-13.813,3.406l-2.656,1.656,6.312,10.126,2.657-1.657-6.313-10.125zm30.938,0.313l-4.719,8.531c-2.986,0.663-5.776,1.865-8.25,3.5-0.847-0.119-1.715-0.188-2.594-0.188-10.675,0-19.312,8.695-19.312,19.407,0,1.947,0.305,3.825,0.843,5.593-0.978,1.235-1.775,2.642-2.312,4.157l-0.688-1.063-10.062,6.344,0.3438,0.562c-2.3766,2.331-3.8438,5.561-3.8438,9.126,0,3.52,1.6295,6.439,4.0938,8.093,2.4642,1.654,5.5401,2.219,8.7182,2.219h20.469,3.125,9.125,17.844,16.375c11.15,0,20.25-9.098,20.25-20.25s-9.099-20.219-20.25-20.219c-1.607,0-3.124,0.264-4.594,0.625-2.866-10.607-12.411-18.5-23.906-18.5-0.499,0-0.977,0.034-1.469,0.063l3.563-6.469-2.75-1.531zm-44.532,11.375l-1.5313,2.75,10.407,5.781,1.5-2.75-10.376-5.781zm45.188,1.344c10.088,0,18.319,7.377,19.844,17.031l0.468,2.906,2.75-1.031c1.734-0.658,3.538-1.063,5.438-1.063,8.58,0,15.5,6.89,15.5,15.469s-6.921,15.5-15.5,15.5h-16.375-17.844-32.719c-2.576,0-4.757-0.53-6.062-1.406s-2-1.922-2-4.156c0-4.463,3.5946-8.032,8.062-8.032,0.74,0,1.486,0.128,2.313,0.375l3.063,0.938v-3.219c0-0.288,0.007-0.458,0-0.5,0.133-5.302,4.412-9.5,9.75-9.5-0.078,0,0.118,0.026,0.656,0.062l2.656,0.188-0.125-2.656c-0.029-0.651-0.063-0.871-0.063-0.719,0-11.178,9.002-20.187,20.188-20.187zm-51.25,16.062v3.125h11.906v-3.125h-11.906z"/>
<path id="blizzard" d="m40.969,0.0010566c-1.0006,0.015157-2.0151,0.19516-3.0312,0.56249-0.43506,0.15727-1.228,0.5569-1.4062,0.68749-0.06475,0.047442-0.04471,0.094866,0.40625,0.90624l0.5,0.87499,0.375-0.21875c1.0499-0.55498,2.0713-0.78254,3.3125-0.78124,1.8787,0.00185,3.6166,0.6879,4.9375,2,0.9352,0.92897,1.6147,2.102,1.9062,3.3125,0.41842,1.7371,0.19508,3.5043-0.625,5.0624-1.0854,2.0622-3.1458,3.4496-5.5,3.7187-0.22746,0.02601-7.1115,0.03102-21.094,0.03125h-20.75v2h21.062l21.062-0.03125,0.46875-0.09375c1.9627-0.36965,3.611-1.2099,4.9375-2.5312,1.5461-1.54,2.4586-3.5881,2.625-5.8437,0.11542-1.5649-0.24926-3.3615-1-4.7812-1.111-2.099-2.963-3.6868-5.157-4.4063-1.026-0.3364-2.031-0.4839-3.031-0.46874zm23.781,0.125c-1.782,0.18419-3.361,0.71027-4.844,1.5624-2.428,1.3953-4.342,3.6561-5.281,6.2812-0.07242,0.20257-0.10195,0.3667-0.09375,0.375,0.0083,0.00827,0.40346,0.16682,0.90625,0.34375,0.70479,0.248,0.94506,0.28735,0.96875,0.25,0.0169-0.026648,0.05993-0.11557,0.09375-0.21875,0.08655-0.26389,0.33268-0.85474,0.5-1.1875,1.1642-2.3151,3.217-4.1125,5.6875-4.9374,1.0388-0.34686,2.0544-0.50129,3.125-0.49999,1.6064,0.00177,2.9752,0.32514,4.4062,1.0312,1.4656,0.72313,2.6236,1.6894,3.5625,2.9687,0.81055,1.1044,1.3278,2.2157,1.6562,3.5312,1.1791,4.7224-1.3093,9.6519-5.8438,11.531-1.331,0.55162-2.9948,0.8216-4.4062,0.71874-0.35108-0.02559-11.234-0.06227-32.844-0.0625h-32.344v2.0312l32.625,0.03125c17.948,0.0052,32.867-0.0051,33.156,0,2.8002,0.0493,5.8234-1.0739,7.9375-2.9687,1.1943-1.0704,2.0605-2.2173,2.75-3.5937,2.022-4.035,1.598-8.8132-1.093-12.437-1.884-2.537-4.614-4.1574-7.813-4.6562-0.625-0.09759-2.192-0.15786-2.812-0.09374zm-64.75,25.781v2h12.719c8.6705,0,12.845,0.0043,13.094,0.03125,2.1221,0.23064,4.0485,1.4088,5.1875,3.1562,0.46371,0.71139,0.85868,1.6855,1.0312,2.5312,0.31197,1.5289,0.09489,3.1277-0.625,4.5625-0.75782,1.5104-2.0875,2.7443-3.6562,3.375-1.9089,0.76738-3.985,0.66985-5.8438-0.25-0.2748-0.13599-0.4916-0.22705-0.5-0.21875-0.0083,0.0083-0.24197,0.38048-0.5,0.84374-0.42821,0.76868-0.46506,0.86205-0.40625,0.90624,0.11508,0.08644,0.84816,0.43906,1.1562,0.56249,0.80416,0.32216,1.7522,0.54006,2.625,0.62499,0.46505,0.04525,1.6095,0.0076,2.0625-0.0625,1.598-0.24716,2.966-0.78627,4.2188-1.7187,0.48023-0.35744,1.4115-1.3187,1.7812-1.8125,2.2148-2.9576,2.4239-6.9016,0.53125-10.094-0.70833-1.1946-1.5739-2.1151-2.7188-2.875-1.1243-0.74629-2.1973-1.1611-3.6562-1.4375-0.41249-0.07812-0.39749-0.08181-13.438-0.09375l-13.062-0.029zm68.438,2.4687-3.0312,1.9687,0,9.4686-5.2812-3-2.6875,1.5625,0,3.3125,7.8438,4.4687,0,6.2187-5.8438-3.125,0.03125,6.4374-5.5625-3.1875,0.03125-9.0937-3.0625-1.7812-2.5,1.6875,0,6.0937-8.25-4.7812-3.2188,1.6562,0,3.7812,8.375,4.5625-5.25,2.9375,0,3.4375,2.9062,1.4687,7.7812-4.5625,5.375,3.0937-5.375,3.3437,5.5312,3.1562,0.125,0.09375-5.4062,3.125-7.75-4.5937-3.0938,1.6875,0,3.4687,5.4375,2.7187-8.6562,4.7187,0,3.7812,3.5,1.5,8.25-4.6562,0,5.9687,2.5312,1.6562,2.9688-1.8437,0-8.9062,5.4375-3.1562,0,6.5937,5.6875-3.6562,0,6.2187-7.8438,4.4687,0,3.3125,2.6875,1.5625,5.2812-2.9687,0,9.4374l3.033,1.968,3.062-1.969v-9.4374l5.25,2.9687,2.6875-1.375v-3.5l-7.8438-4.4687v-6.2187l5.5625,3.375v-6.1874l5.7812,3.2812v8.9687l2.7812,1.5625,2.8125-1.5625v-5.9062l7.8125,4.4687,3.375-1.5625v-3.7187l-7.9688-4.7187,5-2.8125v-3.2187l-2.5625-1.8125-7.9688,4.4687-5.6875-3,5.5-3.1562-5.3438-3.3125,5.5312-3.5,7.9688,4.7187,2.6875-1.5v-3.375l-5.1875-2.9062,8.3125-4.7187v-3.5312l-2.9688-1.8125-8.5,4.5937v-6.2187l-2.9062-1.2812-2.75,1.2812v9.7186l-5.7188,3.125v-6.7499l-5.5312,3.375v-6.2187l8.0938-4.5937v-2.9687l-2.75-1.8437-5.4688,3.0625v-9.4686l-3.0625-1.9687zm-2.5,31.562,5.2812,0,2.5625,4.4687-2.4375,4.1562-5.2812,0-2.8125-4.1562,2.6875-4.4687z"/>
<path id="fg" d="M51.312,21.875c-5.183,0-9.974,1.68-13.874,4.5h27.687c-3.879-2.82-8.642-4.5-13.813-4.5zm-18.312,8.625c-1.135,1.375-2.102,2.891-2.906,4.5h42.312c-0.806-1.614-1.771-3.121-2.906-4.5h-36.5zm-4.5,8.625c-0.41,1.451-0.686,2.95-0.812,4.5h63.718c-2.932-1.897-6.403-3-10.156-3-2.34,0-4.568,0.47-6.625,1.25-0.15-0.948-0.368-1.843-0.625-2.75h-45.5zm-7.438,8.625c-2.041,1.037-3.774,2.58-5,4.5h82.532c-0.668-1.626-1.551-3.141-2.625-4.5h-74.907zm-6.718,8.625c-0.192,0.879-0.282,1.814-0.282,2.75,0,0.087,0.032,0.163,0.032,0.25-1.008-0.302-2.054-0.531-3.156-0.531-2.3633,0-4.5566,0.758-6.3442,2.031h95.344c0.039-0.499,0.062-0.991,0.062-1.5,0-1.025-0.092-2.02-0.25-3h-85.406zm-13.25,8.625c-0.66557,1.366-1.0531,2.889-1.0938,4.5h97.031c0.893-1.385,1.589-2.896,2.094-4.5h-98.031zm-0.25005,8.625c1.6598,3.194,5.5614,4.5,10.094,4.5h70.312c4.652,0,8.91-1.698,12.188-4.5h-92.594z"/>
<path id="mist" d="m51.312,5.9375c-5.183,0-9.975,1.68-13.875,4.5h27.688c-3.879-2.82-8.6415-4.5-13.812-4.5zm-18.312,8.6245c-1.135,1.375-2.1022,2.891-2.9062,4.5h42.312c-0.806-1.614-1.7712-3.121-2.9062-4.5h-36.5zm-4.5,8.625c-0.41,1.451-0.6865,2.95-0.8125,4.5h12.469v4.125h-19.094c-2.041,1.037-3.774,2.58-5,4.5h24.094v4.125h-25.812c-0.192,0.879-0.28125,1.814-0.28125,2.75,0,0.087,0.03125,0.163,0.03125,0.25-1.008-0.302-2.0542-0.53125-3.1562-0.53125-2.3633,0-4.5562,0.75825-6.3438,2.0312h35.562v4.125h-6.25v-3.6875h-20.406v3.6875h-12.406c-0.66682,1.366-1.0543,2.89-1.095,4.5h13.5v4.125h-12.656c1.6598,3.194,5.5611,4.5,10.094,4.5h2.5625v21.281h-13.5v10.594h100v-10.594h-12.75v-22.312c2.2843-0.7748,4.3939-1.9356,6.1875-3.4688h-6.1875v-4.125h9.7812c0.893-1.385,1.5888-2.896,2.0938-4.5h-35.406v-4.125h36.219c0.039-0.499,0.0625-0.991,0.0625-1.5,0-1.025-0.092-2.02-0.25-3h-36.031v-4.125h34.875c-0.668-1.626-1.551-3.141-2.625-4.5h-32.25v-4.125h27.688c-2.932-1.897-6.4032-3-10.156-3-2.34,0-4.568,0.47-6.625,1.25-0.15-0.948-0.368-1.843-0.625-2.75h-45.5zm14.094,6.3438,7.4375,0,0,2.2812-7.4375,0,0-2.2812zm11.25,0,7.4375,0,0,2.2812-7.4375,0,0-2.2812zm-11.25,8.125,7.4375,0,0,2.7812-7.4375,0,0-2.7812zm11.25,0,7.4375,0,0,2.7812-7.4375,0,0-2.7812zm-37.375,15.906,4.5625,0,0,2.3125-4.5625,0,0-2.3125zm9.875,0,4.5625,0,0,2.3125-4.5625,0,0-2.3125zm7.5625,0,6.25,0,0,4.125-6.25,0,0-4.125zm29.812,0,9.4062,0,0,4.125-9.4062,0,0-4.125zm-29.812,8.625,6.25,0,0,21.281-6.25,0,0-21.281zm29.812,0,9.4062,0,0,21.281-9.4062,0,0-21.281z"/>
<path id="ovc" d="m81.245,40.626c-2.34,0-4.558,0.484-6.615,1.264-1.788-11.321-11.508-20.013-23.326-20.013-13.095,0-23.702,10.608-23.702,23.696,0,0.296,0.081,0.571,0.094,0.867-0.296-0.02-0.578-0.087-0.874-0.087-7.045,0-12.759,5.714-12.759,12.759,0,0.087,0.027,0.168,0.027,0.255-1.008-0.302-2.05-0.518-3.153-0.518-6.043,0-10.937,4.901-10.937,10.938,0,6.043,4.894,8.335,10.937,8.335h70.308c10.358,0,18.755-8.389,18.755-18.748s-8.396-18.748-18.755-18.748z"/>
<path id="ra" d="M51.312,6.0312c-13.094,0-23.718,10.6-23.718,23.688,0,0.296,0.08,0.579,0.094,0.875-0.296-0.02-0.58-0.094-0.876-0.094-7.044,0-12.75,5.705-12.75,12.75,0,0.087,0.032,0.194,0.032,0.281-1.008-0.302-2.054-0.531-3.156-0.531-6.0435,0-10.938,4.9-10.938,10.938,0,6.042,4.8945,8.343,10.938,8.343h34.374,18.719,17.219c10.358,0,18.75-8.391,18.75-18.75s-8.391-18.75-18.75-18.75c-2.34,0-4.568,0.47-6.625,1.25-1.788-11.321-11.495-20-23.313-20zm-27.843,62.438l-9.031,24.781,1.937,0.719,9.313-25.5h-2.219zm10.343,0l-9.031,24.781,1.938,0.719,9.281-25.5h-2.188zm10.313,0l-9.031,24.781,1.937,0.719,9.281-25.5h-2.187zm10.344,0l-9.031,24.781,1.937,0.719,9.281-25.5h-2.187zm10.312,0l-9.031,24.781,1.938,0.719,9.281-25.5h-2.188zm10.313,0l-9,24.781,1.937,0.719,9.281-25.5h-2.218z"/>
<path id="rasn" d="M25.5,2l-2.25,1.4688v7.0312l-3.938-2.1875-2,1.1563v2.4692l5.844,3.312v4.625l-4.344-2.313v4.782l-4.124-2.375v-6.781l-2.25-1.313-1.876,1.25v4.531l-6.1558-3.531-2.4062,1.219v2.812l6.25,3.406-3.9062,2.188v2.562l2.1562,1.094,5.781-3.406,4.031,2.312-4,2.5,4.126,2.344,0.093,0.094-4.031,2.312-5.7812-3.406-2.3126,1.25v2.563l4.0626,2.031-6.4688,3.531v2.813l2.625,1.094,6.156-3.469v4.469l1.875,1.25,2.219-1.376v-6.656l4.031-2.344v4.907l4.25-2.719v4.625l-5.844,3.344v2.469l2,1.156,3.938-2.219v7.063l2.25,1.437,2.281-1.437v-7.063l3.938,2.219,2-1v-2.625l-5.844-3.344v-4.625l4.125,2.531v-4.625l4.344,2.438v6.687l2.031,1.157,2.094-1.157v-4.406l5.843,3.313,2.532-1.126v-2.781l-5.938-3.531,3.719-2.094v-2.406l-1.906-1.344-5.969,3.313-4.219-2.188,4.094-2.375-3.969-2.468,4.094-2.626,5.969,3.532,2-1.125v-2.5l-3.875-2.188,6.187-3.5v-2.625l-2.219-1.375-6.343,3.438v-4.657l-2.157-0.937-2.031,0.937v7.282l-4.281,2.312v-5.031l-4.125,2.5v-4.625l6.063-3.438v-2.187l-2.063-1.375-4.094,2.25v-7.0312l-2.281-1.4688zm68.438,1.9375l-90,90,2.125,2.124,90-90-2.124-2.125zm-70.282,21.594h3.938l1.906,3.313-1.812,3.125h-3.938l-2.125-3.125,2.031-3.313zm44.438,16.438c-8.046,0-14.563,6.521-14.563,14.562,0,0.182,0.024,0.35,0.031,0.531-0.181-0.012-0.349-0.062-0.531-0.062-4.328,0-7.843,3.515-7.843,7.844,0,0.053,0.031,0.103,0.031,0.156-0.62-0.186-1.26-0.312-1.938-0.312-3.713,0-6.719,3.009-6.719,6.718,0,3.713,3.006,5.125,6.719,5.125h43.188c6.364-0.002,11.531-5.166,11.531-11.531,0-6.364-5.167-11.5-11.531-11.5-1.438,0-2.799,0.271-4.063,0.75-1.098-6.956-7.051-12.281-14.312-12.281zm-17.094,38.343l-5.562,15.25,1.187,0.438,5.719-15.688h-1.344zm6.344,0l-5.563,15.25,1.188,0.438,5.719-15.688h-1.344zm6.344,0l-5.563,15.25,1.187,0.438,5.719-15.688h-1.343zm6.343,0l-5.562,15.25,1.187,0.438,5.719-15.688h-1.344zm6.344,0l-5.563,15.25,1.188,0.438,5.719-15.688h-1.344zm6.344,0l-5.563,15.25,1.188,0.438,5.718-15.688h-1.343z"/>
<path id="sct" d="M33.469,15v11.938h3.125v-11.938h-3.125zm-13.813,3.406l-2.656,1.656,6.312,10.126,2.657-1.657-6.313-10.125zm30.938,0.313l-5.782,10.437,2.75,1.532,5.782-10.438-2.75-1.531zm-44.532,11.375l-1.5313,2.75,10.407,5.781,1.5-2.75-10.376-5.781zm28.968,0.468c-10.675,0-19.312,8.695-19.312,19.407,0,9.054,6.173,16.619,14.531,18.75-3.104,1.593-5.25,4.819-5.25,8.531,0,2.64,1.214,4.853,3.062,6.094,1.508,1.012,3.31,1.457,5.219,1.594v0.062h1.313,1.812,22.75,13.375,12.281c8.363,0,15.188-6.823,15.188-15.188,0-8.364-6.824-15.156-15.188-15.156-1.204,0-2.335,0.198-3.437,0.469-2.148-7.959-9.313-13.875-17.937-13.875-3.692,0-7.108,1.081-10,2.938-2.449-7.888-9.748-13.626-18.407-13.626zm29.219,0.376l-10.281,5.968,1.562,2.719,10.313-5.969-1.594-2.718zm-0.812,13.874c7.565,0,13.762,5.572,14.906,12.813l0.312,2.156,2.063-0.781c1.3-0.493,2.668-0.781,4.093-0.781,6.436,0,11.626,5.159,11.626,11.593,0,6.435-5.191,11.626-11.626,11.626h-12.281-13.375-24.562c-1.933,0-3.553-0.406-4.532-1.063-0.978-0.657-1.5-1.449-1.5-3.125,0-3.347,2.681-6.031,6.032-6.031,0.554,0,1.13,0.126,1.75,0.312l2.281,0.688v-2.407-0.187c0-4.067,3.246-7.313,7.313-7.313-0.059,0,0.097,0.036,0.5,0.063l2,0.125-0.094-2c-0.022-0.488-0.063-0.646-0.063-0.531,0-8.384,6.767-15.157,15.157-15.157zm-63.438,2.688v3.125h11.906v-3.125h-11.906zm13.562,11.156l-10.062,6.344,1.625,2.656,10.094-6.344-1.657-2.656zm8.438,10.282l-5.75,10.468,2.719,1.5,5.781-10.437-2.75-1.531z"/>
<path id="skc" d="M47.812,0v17.062h4.469v-17.062h-4.469zm-19.718,4.875l-3.782,2.375,9,14.438,3.782-2.344-9-14.469zm44.187,0.4375l-8.25,14.906,3.938,2.187,8.219-14.906-3.907-2.1875zm-63.625,16.25l-2.1874,3.938,14.843,8.25,2.188-3.906-14.844-8.282zm41.406,0.657c-15.25,0-27.624,12.417-27.624,27.719,0,15.3,12.374,27.721,27.624,27.718,15.24,0,27.594-12.416,27.594-27.718s-12.356-27.719-27.594-27.719zm41.75,0.531l-14.718,8.531,2.218,3.907,14.719-8.532-2.219-3.906zm-91.812,23.688v4.468h17v-4.468h-17zm83,0.25v4.5h17v-4.5h-17zm-63.594,15.687l-14.406,9.031,2.3438,3.813,14.406-9.063-2.344-3.781zm60.5,0.969l-2.187,3.906,14.875,8.281,2.187-3.937-14.875-8.25zm-11.312,13.625l-3.875,2.219,8.5,14.781,3.875-2.25-8.5-14.75zm-37.156,0.093l-8.25,14.938,3.906,2.156,8.25-14.937-3.906-2.157zm16.093,5.876v17.062h4.469v-17.062h-4.469z"/>
<path id="sn" d="m42.732,50.287,3.955,5.841,7.365,0,3.398-5.841-3.58-6.22-7.379,0zm3.033,46.974,0-13.207-7.379,4.15-3.759-2.152,0-4.653,10.943-6.22,0-8.68-7.939,5.102,0-9.196-7.589,4.374,0,12.468-4.151,2.572-3.508-2.321,0-8.356-11.518,6.498-4.919-2.07,0-5.27,12.089-6.609-7.561-3.801,0-4.822,4.291-2.349,10.845,6.386,7.533-4.346-0.182-0.139-7.701-4.417,7.477-4.64-7.505-4.346-10.844,6.372-4.068-2.026,0-4.808,7.339-4.123-11.713-6.36,0-5.269,4.5-2.319,11.544,6.666,0-8.497,3.48-2.348,4.264,2.46-0.028,12.718,7.756,4.43-0.027-8.986,8.134,4.375,0-8.68-10.943-6.233,0-4.612,3.759-2.18,7.379,4.151,0-13.18,4.222-2.768,4.261,2.768,0,13.18,7.646-4.235,3.845,2.544,0,4.151-11.322,6.414,0,8.68,7.744-4.724,0,9.448,7.979-4.348,0-13.598,3.844-1.789,4.038,1.789,0,8.694,11.879-6.416,4.153,2.53,0,4.919-11.601,6.597,7.254,4.066,0,4.697-3.76,2.083-11.138-6.583-7.702,4.892,7.449,4.642-7.673,4.416,7.926,4.15,11.138-6.221,3.578,2.53,0,4.487-6.988,3.927,11.126,6.61,0,5.188-4.71,2.152-10.931-6.221,0,8.232-3.927,2.194-3.843-2.194,0-12.496-8.092-4.611,0,8.68-7.744-4.725,0,8.68,10.944,6.22,0,4.92-3.776,1.886-7.337-4.15,0,13.207-4.26,2.738z"/>
<path id="tsra" d="M51.312,3.5625c-13.094,0-23.718,10.63-23.718,23.718,0,0.296,0.08,0.548,0.094,0.844-0.296-0.02-0.58-0.063-0.876-0.063-7.044,0-12.75,5.706-12.75,12.75,0,0.088,0.032,0.164,0.032,0.25-1.008-0.302-2.054-0.5-3.156-0.5-6.0435,0-10.938,4.901-10.938,10.938,0,6.043,4.8945,8.312,10.938,8.312h70.312c10.358,0,18.75-8.39,18.75-18.75,0-10.358-8.391-18.75-18.75-18.75-2.34,0-4.568,0.502-6.625,1.282-1.788-11.321-11.495-20.032-23.313-20.032zm-4.593,58.656l-11.969,20.531h8.562l-6.843,13.688,20.531-20.532h-10.281l8.562-13.687h-8.562zm-23.25,3.781l-9.031,24.812,1.937,0.719,9.313-25.531h-2.219zm10.343,0l-9.031,24.812,1.938,0.719,9.281-25.531h-2.188zm30.969,0l-9.031,24.812,1.938,0.719,9.281-25.531h-2.188zm10.313,0l-9,24.812,1.937,0.719,9.281-25.531h-2.218z"/>
</defs>

<g transform="scale(1.44) translate( 13.194  48.611)"><use xlink:href="#VAR_TODAY_ICON"/></g>
<g transform="scale(1.01) translate( 18.812 234.653)"><use xlink:href="#VAR_HOURLY_1_ICON"/></g>
<g transform="scale(1.01) translate(132.673 234.653)"><use xlink:href="#VAR_HOURLY_2_ICON"/></g>
<g transform="scale(1.01) translate(246.535 234.653)"><use xlink:href="#VAR_HOURLY_3_ICON"/></g>
<g transform="scale(1.01) translate(360.396 234.653)"><use xlink:href="#VAR_HOURLY_4_ICON"/></g>
<g transform="scale(1.01) translate(474.257 234.653)"><use xlink:href="#VAR_HOURLY_5_ICON"/></g>
<g transform="scale(1.01) translate( 18.812 467.327)"><use xlink:href="#VAR_DAILY_TOM_ICON"/></g>
<g transform="scale(1.01) translate( 18.812 600.000)"><use xlink:href="#VAR_DAILY_1_ICON"/></g>
<g transform="scale(1.01) translate(132.673 600.000)"><use xlink:href="#VAR_DAILY_2_ICON"/></g>
<g transform="scale(1.01) translate(246.535 600.000)"><use xlink:href="#VAR_DAILY_3_ICON"/></g>
<g transform="scale(1.01) translate(360.396 600.000)"><use xlink:href="#VAR_DAILY_4_ICON"/></g>
<g transform="scale(1.01) translate(474.257 600.000)"><use xlink:href="#VAR_DAILY_5_ICON"/></g>

<text style="text-anchor:left;" font-size="30px" x="17" y="46" >Today in VAR_LOCATION:</text>
<text style="text-anchor:end;" font-size="18px" x="582" y="37" >Updated at VAR_UPDATE_HOUR:VAR_UPDATE_MINUTE VAR_UPDATE_AMPM</text>

<text style="text-anchor:end;" font-size="34px" x="371" y="103" >High</text>
<text style="text-anchor:end;" font-size="59px" x="374" y="173" >°C</text>
<text style="text-anchor:end;" font-size="101px" x="313" y="203" >VAR_TODAY_HIGH</text>

<text style="text-anchor:end;" font-size="34px" x="581" y="103" >Low</text>
<text style="text-anchor:end;" font-size="59px" x="583" y="173" >°C</text>
<text style="text-anchor:end;" font-size="101px" x="522" y="203" >VAR_TODAY_LOW</text>

<text style="text-anchor:middle;" font-size="30px" x="71" y="366" >VAR_HOURLY_1_TIME</text>
<text style="text-anchor:middle;" font-size="30px" x="71" y="398" >VAR_HOURLY_1_TEMP°C</text>
<text style="text-anchor:middle;" font-size="30px" x="185" y="366" >VAR_HOURLY_2_TIME</text>
<text style="text-anchor:middle;" font-size="30px" x="185" y="398" >VAR_HOURLY_2_TEMP°C</text>
<text style="text-anchor:middle;" font-size="30px" x="300" y="366" >VAR_HOURLY_3_TIME</text>
<text style="text-anchor:middle;" font-size="30px" x="300" y="398" >VAR_HOURLY_3_TEMP°C</text>
<text style="text-anchor:middle;" font-size="30px" x="415" y="366" >VAR_HOURLY_4_TIME</text>
<text style="text-anchor:middle;" font-size="30px" x="415" y="398" >VAR_HOURLY_4_TEMP°C</text>
<text style="text-anchor:middle;" font-size="30px" x="530" y="366" >VAR_HOURLY_5_TIME</text>
<text style="text-anchor:middle;" font-size="30px" x="530" y="398" >VAR_HOURLY_5_TEMP°C</text>

<text style="text-anchor:left;" font-size="30px" x="17" y="451" >Tomorrow and next few days:</text>

<text style="text-anchor:left;" font-size="24px" x="139" y="500" >VAR_DAILY_TOM_DAY, High VAR_DAILY_TOM_HIGH°C, Low VAR_DAILY_TOM_LOW°C</text>
<text style="text-anchor:left;" font-size="24px" x="139" y="532" >Condition: VAR_DAILY_TOM_COND</text>
<text style="text-anchor:left;" font-size="24px" x="139" y="563" >Wind: VAR_DAILY_TOM_WIND_DIR (VAR_DAILY_TOM_WIND_DEG°) at VAR_DAILY_TOM_WIND_LOW to VAR_DAILY_TOM_WIND_HIGHkph</text>

<text style="text-anchor:middle;" font-size="18px" x="69" y="735" >VAR_DAILY_1_DAY</text>
<text style="text-anchor:middle;" font-size="18px" x="69" y="761" >VAR_DAILY_1_HIGH°C / VAR_DAILY_1_LOW°C</text>
<text style="text-anchor:middle;" font-size="18px" x="184" y="735" >VAR_DAILY_2_DAY</text>
<text style="text-anchor:middle;" font-size="18px" x="184" y="761" >VAR_DAILY_2_HIGH°C / VAR_DAILY_2_LOW°C</text>
<text style="text-anchor:middle;" font-size="18px" x="299" y="735" >VAR_DAILY_3_DAY</text>
<text style="text-anchor:middle;" font-size="18px" x="299" y="761" >VAR_DAILY_3_HIGH°C / VAR_DAILY_3_LOW°C</text>
<text style="text-anchor:middle;" font-size="18px" x="414" y="735" >VAR_DAILY_4_DAY</text>
<text style="text-anchor:middle;" font-size="18px" x="414" y="761" >VAR_DAILY_4_HIGH°C / VAR_DAILY_4_LOW°C</text>
<text style="text-anchor:middle;" font-size="18px" x="529" y="735" >VAR_DAILY_5_DAY</text>
<text style="text-anchor:middle;" font-size="18px" x="529" y="761" >VAR_DAILY_5_HIGH°C / VAR_DAILY_5_LOW°C</text>

<text style="text-anchor:middle;" font-size="12px" x="300" y="795" >Kindle Weather Stand Project | MIT License | CC0 | http://billgong.com | Version VAR_VERSION</text>
</svg>
